PathFileType  4	(X/Y/Z) C:\Users\antoi\Documents\MyRepositories\mobilecap\ResultsAnalysis
DataRate	CameraRate	NumFrames	NumMarkers	Units	OrigDataRate	OrigDataStartFrame	OrigNumFrames
100.0	100.0	6	51	mm	100.0	1	1349
Frame#	Time	r_knee			r_shank_antsup			r_ankle			r_calc			r_5meta			r_toe			L_knee			L_shank_antsup			L_ankle			L_calc			L_5meta			L_toe			r_sh2			r_sh3			r_sh4			L_sh2			L_sh3			r_thigh1			r_thigh2			r_thigh3			r_thigh4			r_thigh5			L_thigh1			L_thigh2			L_thigh3			L_thigh4			r.ASIS			r.PSIS			L.ASIS			L.PSIS			C7			R_Shoulder			L_Shoulder			R_Sternum			L_Sternum			R_humerus			R_elbow_med			R_elbow_lat			R_forearm			R_wrist_radius			R_wrist_ulna			L_humerus			L_elbow_med			L_elbow_lat			L_forearm			L_wrist_radius			L_wrist_ulna			R_HJC			L_HJC			R_HJC_reg			L_HJC_reg			
		X1	Y1	Z1	X2	Y2	Z2	X3	Y3	Z3	X4	Y4	Z4	X5	Y5	Z5	X6	Y6	Z6	X7	Y7	Z7	X8	Y8	Z8	X9	Y9	Z9	X10	Y10	Z10	X11	Y11	Z11	X12	Y12	Z12	X13	Y13	Z13	X14	Y14	Z14	X15	Y15	Z15	X16	Y16	Z16	X17	Y17	Z17	X18	Y18	Z18	X19	Y19	Z19	X20	Y20	Z20	X21	Y21	Z21	X22	Y22	Z22	X23	Y23	Z23	X24	Y24	Z24	X25	Y25	Z25	X26	Y26	Z26	X27	Y27	Z27	X28	Y28	Z28	X29	Y29	Z29	X30	Y30	Z30	X31	Y31	Z31	X32	Y32	Z32	X33	Y33	Z33	X34	Y34	Z34	X35	Y35	Z35	X36	Y36	Z36	X37	Y37	Z37	X38	Y38	Z38	X39	Y39	Z39	X40	Y40	Z40	X41	Y41	Z41	X42	Y42	Z42	X43	Y43	Z43	X44	Y44	Z44	X45	Y45	Z45	X46	Y46	Z46	X47	Y47	Z47	X48	Y48	Z48	X49	Y49	Z49	X50	Y50	Z50	X51	Y51	Z51	

1	0.00000000	-216.14984	553.97064	-453.79089	-189.69616	429.46027	-437.77100	-294.60456	101.17290	-420.52639	-353.57285	65.71396	-465.92908	-161.30928	34.34533	-360.20166	-120.40767	59.46606	-430.75152	-224.47695	542.81194	-891.34117	-184.63254	434.38629	-890.49128	-291.59148	97.86827	-903.08195	-349.23030	66.74398	-853.27825	-151.22856	34.32693	-944.99061	-116.52363	58.24211	-877.41104	-194.64872	313.95755	-443.35709	-261.60386	430.04841	-407.22561	-263.34997	314.00402	-393.97013	-269.63620	445.58254	-919.61006	-262.77524	324.30556	-942.28406	-120.95865	789.64057	-478.33950	-120.07772	678.39236	-475.11092	-160.02635	653.10295	-428.57876	-221.59667	785.66391	-424.17223	-215.21601	668.82684	-426.93649	-155.38216	801.73652	-894.61641	-143.09365	665.25019	-897.00767	-266.97981	790.54082	-912.37999	-252.81821	653.38971	-907.37096	-146.49747	1045.00635	-534.89498	-349.55346	1086.33759	-624.47878	-140.93707	1039.16201	-801.17891	-347.67565	1089.63682	-722.54664	-314.15391	1578.69017	-675.46610	-237.63599	1517.10224	-481.27910	-213.05767	1537.97208	-845.81401	-167.92939	1517.06125	-644.26041	-166.09717	1512.79818	-687.27539	-221.13774	1349.16662	-405.32411	-300.20915	1127.82999	-434.44269	-263.24185	1156.22192	-354.79581	-123.39307	1201.63373	-437.62771	-25.52526	1215.40359	-498.67176	-8.83114	1175.47626	-496.56729	-190.68730	1368.59278	-936.88332	-277.41518	1147.44731	-938.32286	-217.03584	1177.28366	-995.93532	-114.79532	1225.26813	-877.99364	-17.66606	1232.73083	-810.94505	-4.56782	1188.04863	-820.88063	-232.68778	968.56565	-571.69094	-226.23212	954.75638	-784.53766	-221.50541	960.79036	-576.97605	-218.14115	966.70120	-752.67244	
2	0.01000000	-216.30901	554.03067	-453.60951	-189.77725	429.57721	-437.37392	-294.60146	101.25609	-420.63888	-353.54674	65.72829	-466.04241	-161.38501	34.25760	-360.21869	-120.27676	59.66262	-430.77225	-224.59978	542.79188	-891.55075	-184.61577	434.55601	-891.18929	-291.55672	97.84109	-903.04358	-349.27092	66.76620	-853.31164	-151.22605	34.26737	-945.01523	-116.65967	58.47386	-877.63078	-194.70585	313.90151	-443.17238	-262.28445	430.01390	-407.39167	-263.71063	314.03018	-393.84970	-269.70880	445.57946	-919.70460	-262.97110	324.35301	-942.43003	-121.78328	789.87023	-477.59577	-120.84411	678.82405	-474.35728	-160.85436	653.05925	-428.72340	-222.66965	785.75952	-424.09830	-215.95062	668.72802	-426.96651	-156.20597	801.87991	-895.50159	-143.62295	665.44412	-897.61541	-267.85483	790.37888	-912.18498	-253.31238	653.42237	-907.58311	-147.07806	1044.89196	-534.99594	-349.93303	1086.80966	-624.75099	-141.44707	1038.90970	-801.23013	-347.87705	1090.09745	-722.85343	-313.77897	1578.86263	-675.55118	-237.07619	1517.45626	-481.64349	-212.80598	1538.36778	-845.82062	-167.58670	1517.29230	-644.55017	-165.72197	1513.04040	-687.45768	-220.18145	1349.63915	-405.25365	-298.51612	1127.77064	-434.32616	-261.61234	1156.66697	-354.58067	-121.98463	1202.23887	-437.34777	-24.05817	1216.03223	-498.74156	-7.50884	1176.13986	-496.49250	-189.77230	1369.21675	-936.80638	-275.32152	1147.71957	-938.33295	-215.02386	1177.86649	-996.12323	-112.84262	1225.79122	-878.13292	-15.83273	1233.19027	-810.77262	-2.66836	1188.52837	-820.43445	-233.49667	968.70847	-571.82021	-226.93054	954.78106	-784.65588	-222.41434	960.84725	-577.19374	-218.73349	966.73410	-752.85472	
3	0.02000000	-216.46315	554.11129	-453.36333	-189.77906	429.68003	-436.99519	-294.63299	101.32306	-420.77358	-353.51895	65.78684	-466.15630	-161.43119	34.24277	-360.17467	-120.22550	59.79383	-430.75988	-224.73090	542.79138	-891.84208	-184.59723	434.68156	-891.89687	-291.55502	97.78525	-903.09802	-349.29265	66.78332	-853.31491	-151.22401	34.19623	-945.05156	-116.59660	58.40142	-877.62962	-194.65608	313.85245	-442.90683	-262.64426	430.20407	-407.27475	-263.99808	314.06247	-393.82904	-269.80262	445.59476	-919.86747	-263.18130	324.45985	-942.75879	-122.67164	790.21714	-476.89569	-121.51990	678.90082	-474.07967	-161.68014	653.03775	-428.57736	-223.83941	785.67989	-424.13220	-216.71990	668.63535	-426.83526	-157.06266	802.10173	-896.13324	-144.21468	665.65297	-898.32807	-268.73962	790.30047	-912.25853	-253.84076	653.35424	-907.64729	-147.81909	1044.69465	-535.05173	-350.37254	1087.24026	-624.85369	-142.09348	1038.63399	-801.20975	-348.57878	1090.59173	-723.24820	-313.36744	1578.97066	-675.57725	-236.50154	1517.71223	-481.90344	-212.62020	1538.74303	-845.80868	-167.16116	1517.44650	-644.65147	-165.32601	1513.26279	-687.65760	-219.09996	1350.13242	-405.23282	-296.40487	1127.59760	-433.85233	-259.81682	1157.06941	-354.36433	-120.39921	1202.85488	-437.29879	-22.51518	1216.78488	-498.72351	-5.96392	1176.96345	-496.48031	-188.82609	1369.95306	-937.13423	-273.03028	1148.05562	-938.57315	-212.76595	1178.40034	-996.31894	-110.73887	1226.30883	-878.04779	-13.76704	1233.68849	-810.47082	-0.58393	1189.07487	-820.16849	-234.51141	968.80056	-571.92371	-227.87133	954.80162	-784.75235	-223.10812	960.82414	-577.06312	-219.90512	966.80560	-752.68048	
4	0.03000000	-216.52237	554.14477	-453.04660	-189.67583	429.67417	-436.61830	-294.66620	101.36774	-420.87779	-353.47714	65.86795	-466.26101	-161.46030	34.27096	-360.09749	-120.24029	59.87025	-430.70448	-224.83273	542.76417	-892.18139	-184.56769	434.69459	-892.50156	-291.54935	97.71357	-903.18999	-349.24812	66.80495	-853.27072	-151.22106	34.13975	-945.11447	-116.46412	58.22272	-877.57318	-194.57884	313.90428	-442.54730	-262.60371	430.37900	-406.91813	-264.16091	314.06615	-393.84208	-269.88957	445.59492	-920.09324	-263.35728	324.50520	-943.06668	-123.66356	790.55335	-476.25366	-122.08188	679.10075	-473.54648	-162.36345	653.17082	-427.99423	-224.99003	785.57128	-424.06472	-217.48587	668.57816	-426.46022	-157.94693	802.36065	-896.60516	-144.79625	665.80312	-899.03058	-269.64378	790.23403	-912.56768	-254.42061	653.22477	-907.68266	-148.69040	1044.46056	-535.18577	-350.94288	1087.66086	-624.95396	-142.95016	1038.29963	-801.15015	-349.39988	1091.06170	-723.71502	-312.89748	1579.07557	-675.65875	-235.83378	1517.95631	-482.06041	-212.42240	1539.08002	-845.83035	-166.63352	1517.58190	-644.75064	-164.87467	1513.43647	-687.86497	-217.86684	1350.57037	-405.33045	-294.30094	1127.63453	-433.32699	-257.81929	1157.44660	-354.01047	-118.64862	1203.50547	-437.32274	-20.84319	1217.65562	-498.62968	-4.11190	1177.92507	-496.36123	-187.84156	1370.67455	-937.37998	-270.50520	1148.34749	-938.92432	-210.25938	1178.86328	-996.35632	-108.46306	1226.82112	-877.87508	-11.52083	1234.24763	-810.12514	1.71102	1189.71082	-820.01015	-235.68422	968.87199	-572.04349	-228.99305	954.77259	-784.86387	-223.98200	960.81907	-576.98329	-221.24044	966.86269	-752.48168	
5	0.04000000	-216.38226	554.07669	-452.55774	-189.44604	429.54690	-436.19153	-294.65991	101.40887	-420.91195	-353.40023	65.91794	-466.37717	-161.49182	34.30156	-360.05889	-120.26079	59.95208	-430.61631	-224.87884	542.72193	-892.62768	-184.48477	434.57711	-893.00472	-291.50625	97.67558	-903.24906	-349.16104	66.85745	-853.20894	-151.22086	34.10915	-945.18901	-116.47275	58.24974	-877.67883	-194.52609	314.09487	-442.14032	-262.24723	430.26060	-406.56182	-264.16228	313.99400	-393.71046	-269.92821	445.56501	-920.37954	-263.46677	324.41041	-943.21609	-124.70643	790.81642	-475.64829	-122.55733	679.59514	-472.49895	-162.85794	653.44281	-427.26800	-226.12832	785.53203	-423.81692	-218.20855	668.59341	-425.93810	-158.88799	802.54087	-897.10888	-145.34287	665.86678	-899.62803	-270.65662	790.07719	-912.85092	-255.01917	653.09807	-907.94210	-149.64309	1044.17736	-535.45664	-351.69654	1088.07651	-625.14713	-143.99999	1037.97788	-801.23862	-349.96125	1091.54324	-723.97427	-312.29725	1579.20607	-675.72979	-235.05718	1518.26266	-482.10400	-212.05162	1539.36449	-845.94748	-166.03040	1517.71640	-644.99268	-164.33260	1513.53923	-688.04109	-216.51526	1350.94584	-405.45106	-292.32340	1127.86823	-433.12117	-255.66422	1157.81422	-353.56828	-116.77391	1204.22229	-437.16817	-19.03307	1218.57753	-498.56195	-2.05526	1178.93192	-496.11640	-186.72516	1371.24112	-937.19204	-267.82318	1148.43869	-939.14590	-207.60463	1179.25747	-996.21611	-106.04968	1227.30728	-877.67330	-9.24570	1234.87010	-809.79853	4.15641	1190.43931	-819.83333	-236.89966	968.89902	-572.24447	-230.23675	954.77248	-785.06402	-225.35338	960.74227	-577.42067	-222.27410	966.89505	-752.79318	
6	0.05000000	-216.08671	553.93068	-451.81624	-189.06366	429.40434	-435.66784	-294.65069	101.44769	-420.91723	-353.33689	65.95699	-466.44002	-161.52451	34.32379	-360.05966	-120.27388	60.06458	-430.49709	-224.89435	542.74806	-893.40083	-184.31191	434.42875	-893.62246	-291.45760	97.66112	-903.29266	-349.13311	66.93785	-853.15584	-151.22892	34.08019	-945.24016	-116.59626	58.43168	-877.87360	-194.31806	314.16748	-441.69137	-261.80720	429.98916	-406.32798	-264.10203	313.91682	-393.29744	-269.88271	445.54694	-920.77671	-263.55471	324.31059	-943.41792	-125.69392	791.08104	-475.09464	-122.96781	679.84956	-471.75564	-163.28993	653.63998	-426.81883	-227.35428	785.47749	-423.57533	-218.80699	668.63184	-425.50205	-159.97027	802.65673	-897.73828	-145.91768	665.94595	-900.27525	-271.83225	789.80914	-912.93183	-255.59769	652.91908	-908.42901	-150.71550	1043.78390	-535.77406	-352.60759	1088.49980	-625.24363	-145.18015	1037.67992	-801.52410	-350.93690	1092.01338	-723.83084	-311.52109	1579.29544	-675.60535	-234.20360	1518.51954	-482.08438	-211.46061	1539.57823	-846.12831	-165.37144	1517.74749	-645.23587	-163.69553	1513.55194	-688.18565	-215.06284	1351.28893	-405.47282	-290.05086	1127.91507	-432.89212	-253.37935	1158.08201	-353.32260	-114.71335	1204.94266	-436.95799	-17.10248	1219.53289	-498.54711	0.08849	1179.95767	-495.96013	-185.36205	1371.70504	-937.02472	-265.02189	1148.36817	-939.29051	-204.81462	1179.58509	-996.11641	-103.54668	1227.75515	-877.31411	-6.92818	1235.53219	-809.43370	6.72376	1191.21471	-819.57159	-238.21585	968.84606	-572.45042	-231.80260	954.81838	-785.28398	-226.71554	960.65625	-577.72501	-223.74413	966.90613	-753.06750	
